<?xml version="1.0" encoding="UTF-8" standalone="no"?>
<!-- Uploaded to: SVG Repo, www.svgrepo.com, Generator: SVG Repo Mixer Tools -->

<svg
   version="1.1"
   id="_x32_"
   width="800px"
   height="800px"
   viewBox="0 0 512 512"
   xml:space="preserve"
   sodipodi:docname="ozi-build-logo.svg"
   inkscape:version="1.1.2 (0a00cf5339, 2022-02-04)"
   inkscape:export-filename="/home/ross/Documents/ozi-build-logo.png"
   inkscape:export-xdpi="24"
   inkscape:export-ydpi="24"
   xmlns:inkscape="http://www.inkscape.org/namespaces/inkscape"
   xmlns:sodipodi="http://sodipodi.sourceforge.net/DTD/sodipodi-0.dtd"
   xmlns="http://www.w3.org/2000/svg"
   xmlns:svg="http://www.w3.org/2000/svg"><defs
   id="defs11"><inkscape:path-effect
     effect="powerclip"
     id="path-effect1459"
     is_visible="true"
     lpeversion="1"
     inverse="true"
     flatten="false"
     hide_clip="false"
     message="Use fill-rule evenodd on &lt;b&gt;fill and stroke&lt;/b&gt; dialog if no flatten result after convert clip to paths." /><clipPath
     clipPathUnits="userSpaceOnUse"
     id="clipPath946"><circle
       style="fill:#c16c18;fill-opacity:0.146819;stroke:#2d2c2f;stroke-width:0.545767;paint-order:stroke fill markers"
       id="circle948"
       cx="256"
       cy="256.0015"
       r="207.30655"
       clip-path="none" /></clipPath><clipPath
     clipPathUnits="userSpaceOnUse"
     id="clipPath1455"><ellipse
       style="display:none;fill:#ffff00;stroke:#000000;stroke-width:0.297129;paint-order:stroke fill markers"
       id="ellipse1457"
       cx="256"
       cy="256.0015"
       rx="151.98936"
       ry="155.69946"
       d="M 407.98936,256.0015 A 151.98936,155.69946 0 0 1 256,411.70096 151.98936,155.69946 0 0 1 104.01064,256.0015 151.98936,155.69946 0 0 1 256,100.30203 151.98936,155.69946 0 0 1 407.98936,256.0015 Z" /><path
       id="lpe_path-effect1459"
       style="fill:#ffff00;stroke:#000000;stroke-width:0.297129;paint-order:stroke fill markers"
       class="powerclip"
       d="M -5,-5 H 517 V 517.003 H -5 Z M 407.98936,256.0015 A 151.98936,155.69946 0 0 0 256,100.30203 151.98936,155.69946 0 0 0 104.01064,256.0015 151.98936,155.69946 0 0 0 256,411.70096 151.98936,155.69946 0 0 0 407.98936,256.0015 Z" /></clipPath></defs><sodipodi:namedview
   id="namedview9"
   pagecolor="#505050"
   bordercolor="#ffffff"
   borderopacity="1"
   inkscape:pageshadow="0"
   inkscape:pageopacity="0"
   inkscape:pagecheckerboard="1"
   showgrid="false"
   inkscape:zoom="0.36592776"
   inkscape:cx="-40.991697"
   inkscape:cy="124.34148"
   inkscape:window-width="1920"
   inkscape:window-height="1009"
   inkscape:window-x="0"
   inkscape:window-y="1114"
   inkscape:window-maximized="1"
   inkscape:current-layer="_x32_" />
<style
   type="text/css"
   id="style2">
<![CDATA[
	.st0{fill:#000000;}
]]>
</style>
<g
   id="g6"
   transform="matrix(1.2282529,0,0,1.2282529,-58.432743,-58.434579)"
   clip-path="url(#clipPath946)">
	<path
   class="st0"
   d="m 496,293.984 c 9.031,-0.703 16,-8.25 16,-17.297 v -41.375 c 0,-9.063 -6.969,-16.594 -16,-17.313 l -54.828,-4.281 c -3.484,-0.266 -6.484,-2.453 -7.828,-5.688 l -18.031,-43.516 c -1.344,-3.219 -0.781,-6.906 1.5,-9.547 l 35.75,-41.813 c 5.875,-6.891 5.5,-17.141 -0.922,-23.547 l -29.25,-29.25 c -6.406,-6.406 -16.672,-6.813 -23.547,-0.922 l -41.813,35.75 c -2.641,2.266 -6.344,2.844 -9.547,1.516 L 303.953,78.654 c -3.219,-1.328 -5.422,-4.375 -5.703,-7.828 L 293.984,16.013 C 293.281,6.969 285.75,0 276.688,0 h -41.375 c -9.063,0 -16.594,6.969 -17.297,16.016 l -4.281,54.813 c -0.266,3.469 -2.469,6.5 -5.688,7.828 l -43.531,18.047 c -3.219,1.328 -6.906,0.75 -9.563,-1.516 L 113.156,59.438 C 106.281,53.547 96.031,53.954 89.609,60.36 l -29.25,29.25 c -6.406,6.406 -6.797,16.656 -0.922,23.547 l 35.75,41.813 c 2.25,2.641 2.844,6.328 1.5,9.547 l -18.031,43.516 c -1.313,3.234 -4.359,5.422 -7.813,5.688 L 16,218 c -9.031,0.719 -16,8.25 -16,17.313 v 41.359 c 0,9.063 6.969,16.609 16,17.313 l 54.844,4.266 c 3.453,0.281 6.5,2.484 7.813,5.703 l 18.031,43.516 c 1.344,3.219 0.75,6.922 -1.5,9.563 l -35.75,41.813 c -5.875,6.875 -5.484,17.125 0.922,23.547 l 29.25,29.25 c 6.422,6.406 16.672,6.797 23.547,0.906 l 41.797,-35.75 c 2.656,-2.25 6.344,-2.844 9.563,-1.5 l 43.531,18.031 c 3.219,1.344 5.422,4.359 5.688,7.844 l 4.281,54.813 c 0.703,9.031 8.234,16.016 17.297,16.016 h 41.375 c 9.063,0 16.594,-6.984 17.297,-16.016 l 4.266,-54.813 c 0.281,-3.484 2.484,-6.5 5.703,-7.844 l 43.531,-18.031 c 3.203,-1.344 6.922,-0.75 9.547,1.5 l 41.813,35.75 c 6.875,5.891 17.141,5.5 23.547,-0.906 l 29.25,-29.25 c 6.422,-6.422 6.797,-16.672 0.922,-23.547 l -35.75,-41.813 c -2.25,-2.641 -2.844,-6.344 -1.5,-9.563 l 18.031,-43.516 c 1.344,-3.219 4.344,-5.422 7.828,-5.703 z m -240,48.532 c -23.109,0 -44.844,-9 -61.188,-25.328 -16.344,-16.359 -25.344,-38.078 -25.344,-61.203 0,-23.109 9,-44.844 25.344,-61.172 16.344,-16.359 38.078,-25.344 61.188,-25.344 23.125,0 44.844,8.984 61.188,25.344 16.344,16.328 25.344,38.063 25.344,61.172 0,23.125 -9,44.844 -25.344,61.203 -16.344,16.328 -38.063,25.328 -61.188,25.328 z"
   id="path4"
   clip-path="url(#clipPath1455)"
   inkscape:path-effect="#path-effect1459"
   inkscape:original-d="m 496,293.984 c 9.031,-0.703 16,-8.25 16,-17.297 v -41.375 c 0,-9.063 -6.969,-16.594 -16,-17.313 l -54.828,-4.281 c -3.484,-0.266 -6.484,-2.453 -7.828,-5.688 l -18.031,-43.516 c -1.344,-3.219 -0.781,-6.906 1.5,-9.547 l 35.75,-41.813 c 5.875,-6.891 5.5,-17.141 -0.922,-23.547 l -29.25,-29.25 c -6.406,-6.406 -16.672,-6.813 -23.547,-0.922 l -41.813,35.75 c -2.641,2.266 -6.344,2.844 -9.547,1.516 L 303.953,78.654 c -3.219,-1.328 -5.422,-4.375 -5.703,-7.828 L 293.984,16.013 C 293.281,6.969 285.75,0 276.688,0 h -41.375 c -9.063,0 -16.594,6.969 -17.297,16.016 l -4.281,54.813 c -0.266,3.469 -2.469,6.5 -5.688,7.828 l -43.531,18.047 c -3.219,1.328 -6.906,0.75 -9.563,-1.516 L 113.156,59.438 C 106.281,53.547 96.031,53.954 89.609,60.36 l -29.25,29.25 c -6.406,6.406 -6.797,16.656 -0.922,23.547 l 35.75,41.813 c 2.25,2.641 2.844,6.328 1.5,9.547 l -18.031,43.516 c -1.313,3.234 -4.359,5.422 -7.813,5.688 L 16,218 c -9.031,0.719 -16,8.25 -16,17.313 v 41.359 c 0,9.063 6.969,16.609 16,17.313 l 54.844,4.266 c 3.453,0.281 6.5,2.484 7.813,5.703 l 18.031,43.516 c 1.344,3.219 0.75,6.922 -1.5,9.563 l -35.75,41.813 c -5.875,6.875 -5.484,17.125 0.922,23.547 l 29.25,29.25 c 6.422,6.406 16.672,6.797 23.547,0.906 l 41.797,-35.75 c 2.656,-2.25 6.344,-2.844 9.563,-1.5 l 43.531,18.031 c 3.219,1.344 5.422,4.359 5.688,7.844 l 4.281,54.813 c 0.703,9.031 8.234,16.016 17.297,16.016 h 41.375 c 9.063,0 16.594,-6.984 17.297,-16.016 l 4.266,-54.813 c 0.281,-3.484 2.484,-6.5 5.703,-7.844 l 43.531,-18.031 c 3.203,-1.344 6.922,-0.75 9.547,1.5 l 41.813,35.75 c 6.875,5.891 17.141,5.5 23.547,-0.906 l 29.25,-29.25 c 6.422,-6.422 6.797,-16.672 0.922,-23.547 l -35.75,-41.813 c -2.25,-2.641 -2.844,-6.344 -1.5,-9.563 l 18.031,-43.516 c 1.344,-3.219 4.344,-5.422 7.828,-5.703 z m -240,48.532 c -23.109,0 -44.844,-9 -61.188,-25.328 -16.344,-16.359 -25.344,-38.078 -25.344,-61.203 0,-23.109 9,-44.844 25.344,-61.172 16.344,-16.359 38.078,-25.344 61.188,-25.344 23.125,0 44.844,8.984 61.188,25.344 16.344,16.328 25.344,38.063 25.344,61.172 0,23.125 -9,44.844 -25.344,61.203 -16.344,16.328 -38.063,25.328 -61.188,25.328 z" />
</g>
<path
   id="path0"
   d="M 220.48834,56.816622 C 150.77192,64.384812 90.342477,112.64759 68.14488,178.48844 c -2.440752,7.23919 -2.412755,6.91825 -3.578626,40.73655 -0.750897,21.76667 -0.317968,75.22584 0.76795,95.0027 l 0.735898,13.38452 2.197761,6.29832 c 23.230497,66.58978 82.860017,113.87164 152.885397,121.22483 11.0598,1.16189 63.19212,1.16189 74.25195,0 65.0769,-6.83424 125.25139,-51.24641 148.33087,-109.47509 5.43641,-13.71753 5.43042,-165.68601 -0.009,-179.40752 -23.06951,-58.20767 -83.25597,-102.622838 -148.3229,-109.456098 -10.30288,-1.08189 -64.89994,-1.066891 -74.91685,0.0193 m 1.57482,123.998548 v 73.91395 l -5.84736,5.73639 c -3.21566,3.15464 -23.21547,23.0345 -44.44517,44.1772 -21.22868,21.14271 -38.6858,38.35383 -38.79277,38.24683 -0.28599,-0.28595 -1.16589,-7.12521 -1.72782,-13.44053 -0.27097,-3.03168 -0.74793,-8.22809 -1.0609,-11.54775 -2.05477,-21.77462 -2.04976,-113.81463 0.007,-133.3585 0.31696,-3.00867 0.79194,-7.59718 1.05689,-10.19491 0.43497,-4.28851 0.83491,-6.97622 2.61072,-17.58409 0.31499,-1.87579 0.77294,-3.77457 1.01788,-4.21853 0.24597,-0.44394 0.60693,-1.8618 0.80392,-3.14965 0.19599,-1.28786 0.55993,-2.8137 0.80893,-3.39164 0.24897,-0.57693 1.05386,-2.93867 1.7888,-5.24844 1.7948,-5.63938 2.70268,-8.09311 3.68959,-9.97292 0.45498,-0.86587 0.82791,-1.84979 0.82989,-2.18674 0.002,-0.33696 0.18103,-0.69094 0.39697,-0.78692 0.21699,-0.0969 0.9789,-1.29787 1.69483,-2.66871 0.71592,-1.37084 1.46781,-2.49273 1.67082,-2.49273 0.20302,0 0.50094,-0.41396 0.66092,-0.91889 0.60695,-1.90779 7.57019,-8.63507 12.08067,-11.67073 l 4.6915,-3.15666 h 29.03185 29.03286 v 73.91397 m 128.65899,-72.20217 c 3.04168,1.7518 9.63296,7.01826 10.09091,8.06311 0.14216,0.32399 -7.12722,8.00016 -16.15424,17.05816 -18.433,18.497 -53.86113,53.47318 -54.16409,53.47318 -0.10892,0 -0.1979,-18.06903 -0.1979,-40.15363 v -40.15262 l 28.73687,0.007 28.73687,0.009 2.95167,1.69882 m 30.91564,74.3949 c 1.54584,9.63296 2.75571,88.3944 1.61285,104.97562 -0.30898,4.4745 -0.79893,13.56852 -1.08989,20.20779 -0.8289,18.90593 -3.44564,40.83557 -5.76337,48.28874 -0.26897,0.86591 -0.64693,2.69972 -0.84091,4.07456 -0.193,1.37486 -0.53794,2.61472 -0.76593,2.75569 -0.22796,0.14094 -0.57792,1.43688 -0.77592,2.87972 -0.19789,1.44283 -0.55391,2.7427 -0.7909,2.88968 -0.23598,0.14581 -0.58894,1.20787 -0.78392,2.35975 -0.19405,1.15085 -0.56893,2.22673 -0.83289,2.38972 -0.26298,0.16304 -0.48696,0.69593 -0.49696,1.18388 -0.009,0.48793 -0.47394,1.8318 -1.03189,2.98668 -0.55795,1.15487 -1.02189,2.26976 -1.03187,2.47772 -0.009,0.2071 -1.19587,2.37075 -2.63473,4.80747 -10.78583,18.26003 -33.0254,28.14396 -63.32714,28.14396 h -12.78758 v -73.29505 -73.29503 l 4.85547,-4.97546 c 2.6697,-2.73671 5.90837,-5.95036 7.19621,-7.14222 1.28786,-1.19189 19.47488,-19.23391 40.41562,-40.09466 34.16127,-34.02929 38.08685,-37.77787 38.19985,-36.47803 0.0691,0.79593 0.37295,2.98269 0.6739,4.85947 m -159.44667,198.01048 0.13398,32.4115 -13.12158,-10e-4 c -15.29433,0 -20.01883,-0.67294 -32.0175,-4.55852 -7.24023,-2.34474 -20.99975,-9.46897 -20.11784,-10.41586 2.43974,-2.61771 35.73014,-35.86109 48.00279,-47.93479 l 16.72917,-16.4582 0.12806,7.27322 c 0.0708,3.99953 0.18893,21.8576 0.26297,39.68365"
   stroke="none"
   fill="#000000"
   fill-rule="evenodd"
   style="stroke-width:0.999892" /></svg>
